<?xml version="1.0" encoding="utf-8"?>
<!-- Generator: Adobe Illustrator 21.1.0, SVG Export Plug-In . SVG Version: 6.00 Build 0)  -->
<svg version="1.1" id="圖層_1" xmlns="http://www.w3.org/2000/svg" xmlns:xlink="http://www.w3.org/1999/xlink" x="0px" y="0px"
	 viewBox="0 0 278 63" style="enable-background:new 0 0 278 63;" xml:space="preserve">
<path d="M140.7,1L134,11.9l-22.3,36.2L142.3,61l30.5-12.9L140.7,1z M140.8,1.6l5.8,8.6l-9.3,7.4l-2.8-5.8L140.8,1.6z M141.1,34.1
	l-4.9-0.4l4.7-3.4L141.1,34.1z M134,12.5l2.8,5.5l-4.7,3.7l-4.3,1.3L134,12.5z M112.4,47.8l8.6-14.1l20.2,1.4l0.6,14L112.4,47.8z
	 M153.4,20.3l10.7,15.4l-22-1.6l-0.4-4.7L153.4,20.3z M142.4,49L142,35.1l22,1.7L142.4,49z"/>
<path id="XMLID_197_" d="M14.9,38.1c0,1-0.3,1.9-1,2.6c-0.3,0.3-0.8,0.6-1.3,1.1c-0.2,0.2-0.6,0.4-1.2,0.8c-0.7,0.4-1,0.6-1.1,0.5
	c0.3-0.2,0.7-0.4,1.2-0.7c0.4-0.3,0.8-0.8,1-1.4c0.2-0.5,0.3-1,0.3-1.4c0-1.1-0.4-2.1-1.1-2.9c-0.7-0.9-1.6-1.3-2.5-1.3
	c-0.1,0-0.2,0.1-0.2,0.4c0,0,0,0.2,0,0.4c0,0.2,0,0.4,0,0.4v0.9l0,8.1C9,45.6,9,46,9,46.5c0,0.9,0.3,1.3,0.9,1.3c0,0,0.1,0,0.2,0
	c0.1,0,0.2,0,0.2,0l0,0.2H8.1c0,0-0.2,0-0.6,0.1c-0.4,0.1-0.6,0.1-0.6,0.1H6.6c0.2-0.5,0.3-1,0.3-1.7C7,46,7,45.4,7,44.7l0-5.1
	c0-0.7-0.1-1.4-0.1-2c-0.1-0.8-0.2-1.5-0.4-1.9c0-0.1-0.1-0.1-0.2-0.2C6.1,35.4,6,35.3,6,35.3c0.1-0.1,0.3-0.1,0.6-0.1
	c0.4,0,0.6,0,0.6,0c0.2,0,0.4,0,0.6-0.1c1-0.1,2-0.2,3-0.2c0.9,0,1.7,0.2,2.6,0.7C14.4,36.3,14.9,37.1,14.9,38.1z"/>
<path id="XMLID_195_" d="M29.7,48.2h-3.2V48c0-0.1,0.1-0.5,0.2-1.4l0-4.5c0-0.1,0-0.2,0-0.4l0-0.2c0-0.1-0.1-0.2-0.4-0.2l-5.9,0.4
	c-0.2,0-0.3,0.1-0.4,0.2c0,0,0,0.2,0,0.7v4.6c0,0.3,0.2,0.5,0.5,0.7c0.3,0.1,0.6,0.2,0.8,0.3c0,0.1,0,0.1-0.1,0.1H19
	c0,0-0.4,0-1.1,0.1l-0.3-0.1c0.3-0.2,0.5-0.6,0.6-1.3c0-0.5,0.1-1.1,0.1-1.6c0-0.3,0.1-0.5,0.1-0.6v-0.9l0.1-1.7v-2.9
	c0-1.4-0.1-2.5-0.3-3.4c-0.1-0.3-0.2-0.4-0.3-0.5c-0.3-0.1-0.5-0.2-0.5-0.2c0.1,0,0.5,0,1.3,0c0.6,0,1.2-0.1,1.7-0.3
	c0.1,0.1,0.1,0.1,0.1,0.2c0,0,0,0.1,0,0.2c0,0.1,0,0.2,0,0.2v0.9c0,0,0,0.1,0,0.1c0,0.1,0,0.1,0,0.1V38c0,0,0,0.1,0,0.3
	c0,0.2,0,0.3,0,0.3v2.3c0,0,0.1,0,0.1,0.1h5c0.7,0,1.1-0.1,1.2-0.2c0.1-0.1,0.2-0.4,0.2-0.9c0,0,0-0.3,0-0.9c0-0.6,0-0.9,0-0.9v-1.6
	c0-0.1,0-0.4-0.1-0.7c-0.1-0.3-0.2-0.5-0.3-0.6c-0.1,0-0.1-0.1-0.2-0.2c0.1-0.1,0.2-0.1,0.3-0.1c0,0,0.2,0,0.4,0c0.3,0,0.4,0,0.5,0
	c0.5,0,1-0.1,1.6-0.2v0.2c-0.2,1.1-0.3,2-0.3,2.5v6.7c0,0.4,0,1,0.2,1.9c0.1,0.9,0.2,1.4,0.3,1.5c0.1,0.1,0.2,0.2,0.4,0.3
	C29.5,48,29.7,48.1,29.7,48.2z"/>
<path id="XMLID_192_" d="M75.9,48.2l-2.2,0.1c-0.8,0-1.4-0.5-1.9-1.6c-0.3-0.7-0.6-1.5-1-2.2c-0.2-0.6-0.7-1.5-1.3-2.6h-3.9
	c-0.2,0-0.4,0.3-0.7,1c-0.2,0.4-0.3,0.8-0.5,1.2c-0.5,1.2-0.8,2.1-0.8,2.6c0,0.5,0.2,0.9,0.6,1c0.5,0.2,1,0.3,1.5,0.5l-2.5,0.3
	c-0.2,0-0.5,0-1-0.1c-0.5,0-0.8-0.1-1-0.1c0.7-0.5,1.3-1.3,1.8-2.3c0.5-1,1.3-2.8,2.4-5.4c1.2-2.9,1.8-4.4,1.8-4.8
	c0-0.2-0.1-0.4-0.2-0.5c-0.2-0.1-0.3-0.2-0.5-0.2c0,0-0.1,0-0.2,0c-0.1,0-0.2,0-0.2,0c-0.1,0-0.1,0-0.2-0.1c0-0.1,0.1-0.1,0.2-0.1
	c0.1,0,0.3,0,0.4-0.1l2.2-0.1c0.3,0,0.6,0.3,0.9,1c0.2,0.4,0.3,0.8,0.5,1.2c0.6,1.6,1.2,3.3,1.9,4.9c1,2.4,1.9,4.2,2.7,5.5
	c0.2,0.2,0.4,0.4,0.7,0.6C75.7,48.1,75.9,48.2,75.9,48.2z M69.5,41.4v-0.2c0,0-0.4-1.2-1.3-3.4c-0.1-0.3-0.3-0.7-0.6-1.1l-2,4.7
	H69.5z"/>
<path id="XMLID_189_" d="M58.9,48.1c-0.1,0.1-0.5,0.1-1.3,0.2c-0.1,0-0.2,0-0.3,0c-0.2,0-0.3,0-0.3,0c-0.7,0-1.2-0.2-1.6-0.6
	c-0.2-0.2-0.6-0.8-1.3-1.9c-0.3-0.5-0.5-0.9-0.8-1.4c-0.4-0.6-0.7-1-1.1-1.4c-0.3-0.3-0.8-0.4-1.7-0.4c-0.1,0-0.2,0.1-0.2,0.2v3.4
	c0,1.2,0.3,1.9,1,1.9c0.1,0,0.2,0,0.3,0.1c-0.4,0.1-0.6,0.1-0.6,0.1c0,0-0.3,0-0.8,0c-0.5,0-0.7,0-0.8,0c-0.2,0-0.8,0.1-1.6,0.2
	c0.1-0.1,0.3-0.2,0.5-0.4c0.1-0.2,0.2-0.9,0.2-2.1l0.1-2.6v-1.3c0,0,0-0.2,0-0.5c0-0.3,0-0.5,0-0.5v-1.3l-0.1-2.5
	c0-0.6-0.1-1.2-0.4-1.9c0-0.1-0.1-0.1-0.2-0.2l-0.2-0.1c0.2-0.1,0.3-0.1,0.4-0.1l1.1,0c0.4,0,0.9,0,1.5,0l2-0.1c1,0,1.9,0.2,2.6,0.6
	c1,0.5,1.5,1.4,1.5,2.5c0,0.8-0.2,1.5-0.6,2.1c-0.3,0.4-0.7,0.9-1.2,1.3c-0.4,0.4-0.7,0.6-0.7,0.7c0,0,0.2,0.3,0.5,0.8
	c0.4,0.7,0.8,1.2,1,1.5c0.3,0.6,0.7,1.1,1,1.7c0.4,0.7,0.8,1.1,1.2,1.4c0.1,0.1,0.3,0.2,0.5,0.2C58.7,48,58.9,48.1,58.9,48.1z
	 M54.6,39.7c0-0.9-0.3-1.8-1-2.7c-0.8-1.1-1.6-1.6-2.6-1.6c-0.5,0-0.7,0-0.6,0l-0.1,7.2h1.3c1.2,0,2.1-0.2,2.4-0.5
	C54.4,41.7,54.6,40.9,54.6,39.7z"/>
<path id="XMLID_186_" d="M46.2,48.2L44,48.3c-0.8,0-1.4-0.5-1.9-1.6c-0.3-0.7-0.6-1.5-1-2.2c-0.2-0.6-0.7-1.5-1.3-2.6H36
	c-0.2,0-0.4,0.3-0.7,1c-0.2,0.4-0.3,0.8-0.5,1.2c-0.5,1.2-0.8,2.1-0.8,2.6c0,0.5,0.2,0.9,0.6,1c0.5,0.2,1,0.3,1.5,0.5l-2.5,0.3
	c-0.2,0-0.5,0-1-0.1c-0.5,0-0.8-0.1-1-0.1c0.7-0.5,1.3-1.3,1.8-2.3c0.5-1,1.3-2.8,2.4-5.4c1.2-2.9,1.8-4.4,1.8-4.8
	c0-0.2-0.1-0.4-0.2-0.5c-0.2-0.1-0.3-0.2-0.5-0.2c0,0-0.1,0-0.2,0c-0.1,0-0.2,0-0.2,0c-0.1,0-0.1,0-0.2-0.1c0-0.1,0.1-0.1,0.2-0.1
	c0.1,0,0.3,0,0.4-0.1l2.2-0.1c0.3,0,0.6,0.3,0.9,1c0.2,0.4,0.3,0.8,0.5,1.2c0.6,1.6,1.2,3.3,1.9,4.9c1,2.4,1.9,4.2,2.7,5.5
	c0.2,0.2,0.4,0.4,0.7,0.6C46,48.1,46.2,48.2,46.2,48.2z M39.8,41.4v-0.2c0,0-0.4-1.2-1.3-3.4c-0.1-0.3-0.3-0.7-0.6-1.1l-2,4.7H39.8z
	"/>
<path id="XMLID_183_" d="M90.8,40.6c0,2.1-0.6,3.9-1.8,5.4c-1.4,1.7-3.1,2.6-5.3,2.6h-0.4c-1.8,0-3.2-0.4-4.4-1.3
	c-1.4-1-2.2-2.6-2.5-4.7c0-0.3,0-0.6,0-0.9c0.3-2.4,1.2-4.3,2.7-5.5c1.3-1,3-1.5,5-1.5c2,0,3.6,0.6,4.9,1.7
	C90.2,37.5,90.8,38.9,90.8,40.6z M89,43c0-1.9-0.6-3.5-1.8-5.1c-1.3-1.7-3-2.5-5-2.5c-1.3,0-2.4,0.5-3.1,1.4
	c-0.7,0.8-1.1,1.9-1.1,3.2c0,1.5,0.4,2.8,1.2,4c0.8,1.3,2,2.3,3.6,3.1c1,0.5,1.8,0.7,2.4,0.7h0.4c0.9,0,1.7-0.3,2.4-1
	c0.7-0.7,1.1-1.6,1.1-2.7c0-0.3,0-0.6,0-0.8C89,43,89,42.9,89,43z"/>
<path id="XMLID_181_" d="M106.1,48.2h-3.2V48c0-0.1,0.1-0.5,0.2-1.4l0-4.5c0-0.1,0-0.2,0-0.4l0-0.2c0-0.1-0.1-0.2-0.4-0.2l-5.9,0.4
	c-0.2,0-0.3,0.1-0.4,0.2c0,0,0,0.2,0,0.7v4.6c0,0.3,0.2,0.5,0.5,0.7c0.3,0.1,0.6,0.2,0.8,0.3c0,0.1,0,0.1-0.1,0.1h-2.3
	c0,0-0.4,0-1.1,0.1L94,48.2c0.3-0.2,0.5-0.6,0.6-1.3c0-0.5,0.1-1.1,0.1-1.6c0-0.3,0.1-0.5,0.1-0.6v-0.9l0.1-1.7v-2.9
	c0-1.4-0.1-2.5-0.3-3.4c-0.1-0.3-0.2-0.4-0.3-0.5c-0.3-0.1-0.5-0.2-0.5-0.2c0.1,0,0.5,0,1.3,0c0.6,0,1.2-0.1,1.7-0.3
	c0.1,0.1,0.1,0.1,0.1,0.2c0,0,0,0.1,0,0.2c0,0.1,0,0.2,0,0.2v0.9c0,0,0,0.1,0,0.1c0,0.1,0,0.1,0,0.1V38c0,0,0,0.1,0,0.3
	c0,0.2,0,0.3,0,0.3v2.3c0,0,0.1,0,0.1,0.1h5c0.7,0,1.1-0.1,1.2-0.2c0.1-0.1,0.2-0.4,0.2-0.9c0,0,0-0.3,0-0.9c0-0.6,0-0.9,0-0.9v-1.6
	c0-0.1,0-0.4-0.1-0.7c-0.1-0.3-0.2-0.5-0.3-0.6c-0.1,0-0.1-0.1-0.2-0.2c0.1-0.1,0.2-0.1,0.3-0.1c0,0,0.2,0,0.4,0c0.3,0,0.4,0,0.5,0
	c0.5,0,1-0.1,1.6-0.2v0.2c-0.2,1.1-0.3,2-0.3,2.5v6.7c0,0.4,0.1,1,0.2,1.9c0.1,0.9,0.2,1.4,0.3,1.5c0.1,0.1,0.2,0.2,0.4,0.3
	C106,48,106.1,48.1,106.1,48.2z"/>
<path id="XMLID_179_" d="M193.2,42.5c0,1.3-0.9,2.3-2.6,3c-1.3,0.6-2.5,0.8-3.7,0.8c0,0-0.1,0-0.3,0c-0.1,0-0.2,0-0.2,0
	c-1.9,0-3.4-0.7-4.6-2.1c-1-1.3-1.5-2.8-1.5-4.5c0-1.7,0.5-3.2,1.6-4.4c1.2-1.4,2.8-2.1,4.8-2.2l1.6,0c0.6,0,1.4,0.1,2.3,0.3
	c0,0,0.8,0.2,2.3,0.6c-0.1,0.1-0.3,0.4-0.6,0.9c-0.4,0.4-0.6,0.8-0.7,1c-0.1,0.3-0.2,0.6-0.3,0.8c0,0.1-0.1,0.2-0.3,0.3v-0.2
	c0,0,0-0.1,0.1-0.4c0.1-0.2,0.1-0.4,0.1-0.5c0-0.9-0.6-1.5-1.9-1.9c-0.8-0.3-1.6-0.4-2.4-0.4c0,0-0.1,0-0.3,0c-0.2,0-0.3,0-0.3,0
	c0,0,0,0-0.1,0c0,0,0,0-0.1,0c-0.4,0-1,0.2-1.8,0.5c-1.6,0.7-2.4,2.1-2.4,4.2c0,2,0.8,3.7,2.4,5.1c1.5,1.4,3.2,2.1,5.1,2.1
	c1.1,0,1.7-0.5,1.7-1.4c0-0.5-0.1-1-0.4-1.5c-0.1-0.3-0.3-0.5-0.6-0.8c-0.3-0.2-0.6-0.4-0.8-0.5c-0.2,0-0.5-0.1-0.9-0.2
	c0-0.1,0-0.1,0.2-0.2l2.3-0.1c0.6,0,1.1,0.1,1.5,0.3C192.9,41.4,193.2,41.9,193.2,42.5z"/>
<path id="XMLID_176_" d="M210.1,46.2l-2.2,0.1c-0.8,0-1.4-0.5-1.9-1.6c-0.3-0.7-0.6-1.5-1-2.2c-0.2-0.6-0.7-1.5-1.3-2.6H200
	c-0.2,0-0.4,0.3-0.7,1c-0.2,0.4-0.3,0.8-0.5,1.2c-0.5,1.2-0.8,2.1-0.8,2.6c0,0.5,0.2,0.9,0.6,1c0.5,0.2,1,0.3,1.5,0.5l-2.5,0.3
	c-0.2,0-0.5,0-1-0.1c-0.5,0-0.8-0.1-1-0.1c0.7-0.5,1.3-1.3,1.8-2.3c0.5-1,1.3-2.8,2.4-5.4c1.2-2.9,1.8-4.4,1.8-4.8
	c0-0.2-0.1-0.4-0.2-0.5c-0.2-0.1-0.3-0.2-0.5-0.2c0,0-0.1,0-0.2,0c-0.1,0-0.2,0-0.2,0c-0.1,0-0.1,0-0.2-0.1c0-0.1,0.1-0.1,0.2-0.1
	c0.1,0,0.3,0,0.4-0.1l2.2-0.1c0.3,0,0.6,0.3,0.9,1c0.2,0.4,0.3,0.8,0.5,1.2c0.6,1.6,1.2,3.3,1.9,4.9c1,2.4,1.9,4.2,2.7,5.5
	c0.2,0.2,0.4,0.4,0.7,0.6C210,46.1,210.1,46.2,210.1,46.2z M203.7,39.5v-0.2c0,0-0.4-1.2-1.3-3.4c-0.1-0.3-0.3-0.7-0.6-1.1l-2,4.7
	H203.7z"/>
<path id="XMLID_174_" d="M228.7,46.3c-0.1,0-0.2,0.1-0.5,0.1l-2.3,0.1c-0.5,0-0.8-0.1-0.8-0.3c0-0.1,0-0.1,0-0.2l-0.1-6.6l-0.2-3.8
	c-0.9,2-1.8,3.9-2.7,5.9c-1.4,3.1-2.3,4.6-2.7,4.6c-0.1,0-0.9-1.4-2.4-4.2c-1.8-3.4-2.9-5.4-3.3-6c-0.2,1.5-0.3,2.5-0.3,3.1l-0.3,4
	c0,0,0,0.3,0,0.9c0,0.5,0.2,1,0.6,1.6c0.4,0.5,0.9,0.8,1.4,0.8c0,0.1-0.1,0.2-0.3,0.2c0,0-0.2,0-0.7,0c-0.4,0-0.6,0-0.7,0
	c-0.8,0-1.4,0.1-1.9,0.2c0.1-0.2,0.2-0.6,0.3-1c0.2-0.4,0.3-0.8,0.3-1.1c0.1-0.5,0.2-1.7,0.5-3.6c0.3-2.4,0.4-4,0.4-5
	c0-1.4-0.5-2.3-1.5-2.6c0,0,0.2-0.1,0.5-0.1c0.2,0,0.5,0,0.8,0c0.3,0,0.5,0,0.5,0l1.4-0.1c0.1,0,0.2,0.1,0.3,0.3
	c0.5,1.4,1.4,3.3,2.6,5.6c1.1,2.1,2,3.7,2.8,4.8c0.2-0.2,0.6-1.1,1.3-2.7c0.5-1.3,1.1-2.5,1.6-3.8c0.6-1.4,1-2.6,1.3-3.8
	c1-0.1,1.8-0.2,2.6-0.2c0,0-0.1,0.1-0.2,0.2c-0.1,0.1-0.1,0.2-0.2,0.6c-0.1,0.5-0.1,0.8-0.1,0.8l0,4.4c0.1,1.5,0.1,2.5,0.2,3.1
	c0.1,1.3,0.2,2.3,0.4,3.1c0.1,0.3,0.3,0.4,0.6,0.5S228.6,46.2,228.7,46.3z"/>
<path id="XMLID_172_" d="M234.8,46.2c0,0,0,0.1-0.1,0.2h-3l0.3-3.2l0.1-3.1c0-2.9,0-4.3,0-4.3c0-0.1,0-0.3,0-0.5c0-0.4,0-0.8,0-1.2
	c0-0.4-0.2-0.8-0.5-1.1c0.1,0,0.3,0,0.6,0c0.3,0,0.5,0,0.5,0c0.5,0,0.9,0,1.2-0.1c0.3-0.1,0.5-0.1,0.4-0.1h0.2
	c-0.2,1.7-0.3,3.7-0.4,6l0,6.1c0,0.2,0.1,0.4,0.1,0.6c0,0.3,0.1,0.5,0.2,0.6C234.3,46,234.5,46.1,234.8,46.2z"/>
<path id="XMLID_170_" d="M253.9,33.1c-0.1,0.1-0.4,0.2-0.8,0.3c-0.5,0.1-0.8,0.2-0.9,0.3c-0.3,2.7-0.4,4.2-0.4,4.4V39
	c0,0.3-0.1,1.6-0.2,3.9c-0.1,1.2-0.2,2.3-0.2,3.5c0,0-0.1,0-0.1,0c0,0-0.4-0.3-1-0.9c-2.3-2.2-4-4-5.3-5.3c-2-2-3.3-3.4-4.1-4.2
	c-0.1,1.6-0.1,3.7,0,6.1c0,0.5,0.1,1.4,0.2,2.5c0,0.2,0.1,0.4,0.1,0.4c0,0.1,0.1,0.2,0.2,0.3c0.3,0.2,0.6,0.3,1,0.3
	c0.2,0,0.6,0,1,0.1c0,0-0.5,0.1-1.5,0.3c-0.7,0.1-1.3,0.2-1.8,0.2c-0.6,0-1.1,0-1.4-0.1c0,0,0.2-0.2,0.6-0.4
	c0.3-0.2,0.4-0.4,0.5-0.6c0.3-1,0.4-2.6,0.4-5V39l0.1-2.3c0-0.9-0.1-1.5-0.3-1.9c-0.3-0.6-0.9-1.1-1.8-1.5c0.8-0.1,1.9-0.2,3.5-0.3
	c1,1.5,2.5,3.3,4.4,5.4c0.8,0.8,2.4,2.4,4.8,4.8c0-0.1,0.1-0.1,0.1-0.2l-0.1-2.9c-0.1-1.4-0.2-2.8-0.2-4.2c0-0.4-0.1-1.1-0.2-2
	c0-0.1-0.1-0.1-0.2-0.1c-0.6,0-1,0.1-1.2,0.1c0.1-0.1,0.4-0.2,1-0.4c0.7-0.2,1.1-0.3,1.4-0.3L253.9,33.1z"/>
<path id="XMLID_168_" d="M269.6,42.5c0,1.3-0.9,2.3-2.6,3c-1.3,0.6-2.5,0.8-3.7,0.8c0,0-0.1,0-0.3,0c-0.1,0-0.2,0-0.2,0
	c-1.9,0-3.4-0.7-4.6-2.1c-1-1.3-1.5-2.8-1.5-4.5c0-1.7,0.5-3.2,1.6-4.4c1.2-1.4,2.8-2.1,4.8-2.2l1.6,0c0.6,0,1.4,0.1,2.3,0.3
	c0,0,0.8,0.2,2.3,0.6c-0.1,0.1-0.3,0.4-0.6,0.9c-0.4,0.4-0.6,0.8-0.7,1c-0.1,0.3-0.2,0.6-0.3,0.8c0,0.1-0.1,0.2-0.3,0.3v-0.2
	c0,0,0-0.1,0.1-0.4c0.1-0.2,0.1-0.4,0.1-0.5c0-0.9-0.6-1.5-1.9-1.9c-0.8-0.3-1.6-0.4-2.4-0.4c0,0-0.1,0-0.3,0c-0.2,0-0.3,0-0.3,0
	c0,0,0,0-0.1,0c0,0,0,0-0.1,0c-0.4,0-1,0.2-1.8,0.5c-1.6,0.7-2.4,2.1-2.4,4.2c0,2,0.8,3.7,2.4,5.1c1.5,1.4,3.2,2.1,5.1,2.1
	c1.1,0,1.7-0.5,1.7-1.4c0-0.5-0.1-1-0.4-1.5c-0.1-0.3-0.3-0.5-0.6-0.8c-0.3-0.2-0.6-0.4-0.8-0.5c-0.2,0-0.5-0.1-0.9-0.2
	c0-0.1,0-0.1,0.2-0.2l2.3-0.1c0.6,0,1.1,0.1,1.5,0.3C269.4,41.4,269.6,41.9,269.6,42.5z"/>
</svg>
